<svg xmlns="http://www.w3.org/2000/svg" fill="none" viewBox="0 0 61 60" height="60" width="61">
<path fill="black" d="M12.5 18.1C12.5 16.9402 13.4371 16 14.593 16H46.407C47.5629 16 48.5 16.9402 48.5 18.1V31.54C48.5 32.6998 47.5629 33.64 46.407 33.64H14.593C13.4371 33.64 12.5 32.6998 12.5 31.54V18.1ZM14.593 17.4C14.2077 17.4 13.8953 17.7134 13.8953 18.1V31.54C13.8953 31.9266 14.2077 32.24 14.593 32.24H46.407C46.7923 32.24 47.1047 31.9266 47.1047 31.54V18.1C47.1047 17.7134 46.7923 17.4 46.407 17.4H14.593Z" clip-rule="evenodd" fill-rule="evenodd"></path>
<path fill="black" d="M24.1473 35.2869C24.3196 35.6327 24.1799 36.0532 23.8353 36.2261C23.616 36.3361 23.4048 36.4838 23.2477 36.6977C23.0975 36.9022 22.9651 37.2096 22.9651 37.7C22.9651 38.1328 23.1281 38.4833 23.3634 38.8227C23.4649 38.9691 23.57 39.1002 23.6831 39.2412C23.7064 39.2703 23.7301 39.2998 23.7541 39.3299C23.8795 39.4871 24.0396 39.6908 24.1473 39.9069C24.3242 40.262 24.5398 40.835 24.3353 41.5786C24.1397 42.29 23.5927 43.0355 22.5589 43.8504C22.256 44.0892 21.8174 44.0364 21.5793 43.7324C21.3413 43.4285 21.3939 42.9884 21.6969 42.7495C22.6166 42.0245 22.9068 41.5099 22.9902 41.2063C23.0648 40.935 23.0014 40.7379 22.8992 40.533C22.8674 40.4692 22.8007 40.3753 22.6645 40.2044C22.6454 40.1805 22.6252 40.1553 22.604 40.1289C22.4906 39.9877 22.35 39.8126 22.218 39.6222C21.8951 39.1566 21.5698 38.5271 21.5698 37.7C21.5698 36.9304 21.7862 36.3277 22.1244 35.8672C22.4557 35.4161 22.8724 35.1439 23.2112 34.9739C23.5559 34.801 23.975 34.9411 24.1473 35.2869Z" clip-rule="evenodd" fill-rule="evenodd"></path>
<path fill="black" d="M31.6822 35.2869C31.8545 35.6327 31.7148 36.0532 31.3702 36.2261C31.1509 36.3361 30.9397 36.4838 30.7826 36.6977C30.6324 36.9022 30.5 37.2096 30.5 37.7C30.5 38.1328 30.663 38.4833 30.8983 38.8227C30.9998 38.9691 31.1049 39.1002 31.218 39.2412C31.2413 39.2703 31.265 39.2998 31.289 39.3299C31.4144 39.4871 31.5744 39.6908 31.6822 39.9069C31.8591 40.262 32.0747 40.835 31.8702 41.5786C31.6746 42.29 31.1276 43.0355 30.0938 43.8504C29.7908 44.0892 29.3523 44.0364 29.1142 43.7324C28.8761 43.4285 28.9288 42.9884 29.2318 42.7495C30.1515 42.0245 30.4417 41.5099 30.5251 41.2063C30.5997 40.935 30.5362 40.7379 30.4341 40.533C30.4023 40.4692 30.3356 40.3753 30.1994 40.2044C30.1803 40.1805 30.1601 40.1553 30.1389 40.1289C30.0255 39.9877 29.8849 39.8126 29.7529 39.6222C29.43 39.1566 29.1047 38.5271 29.1047 37.7C29.1047 36.9304 29.3211 36.3277 29.6593 35.8672C29.9905 35.4161 30.4073 35.1439 30.7461 34.9739C31.0908 34.801 31.5098 34.9411 31.6822 35.2869Z" clip-rule="evenodd" fill-rule="evenodd"></path>
<path fill="black" d="M39.4961 35.2869C39.6684 35.6327 39.5287 36.0532 39.1841 36.2261C38.9648 36.3361 38.7536 36.4838 38.5966 36.6977C38.4463 36.9022 38.314 37.2096 38.314 37.7C38.314 38.1328 38.4769 38.4833 38.7123 38.8227C38.8137 38.9691 38.9189 39.1002 39.032 39.2412C39.0553 39.2703 39.0789 39.2998 39.1029 39.3299C39.2283 39.4871 39.3884 39.6908 39.4961 39.9069C39.6731 40.262 39.8886 40.835 39.6842 41.5786C39.4886 42.29 38.9415 43.0355 37.9078 43.8504C37.6048 44.0892 37.1662 44.0364 36.9282 43.7324C36.6901 43.4285 36.7427 42.9884 37.0457 42.7495C37.9655 42.0245 38.2556 41.5099 38.3391 41.2063C38.4137 40.935 38.3502 40.7379 38.2481 40.533C38.2163 40.4692 38.1496 40.3753 38.0133 40.2044C37.9943 40.1805 37.974 40.1553 37.9528 40.1289C37.8394 39.9877 37.6988 39.8126 37.5668 39.6222C37.244 39.1566 36.9186 38.5271 36.9186 37.7C36.9186 36.9304 37.1351 36.3277 37.4732 35.8672C37.8045 35.4161 38.2212 35.1439 38.5601 34.9739C38.9047 34.801 39.3238 34.9411 39.4961 35.2869Z" clip-rule="evenodd" fill-rule="evenodd"></path>
<path fill="black" d="M12.5 27.76C12.5 27.3734 12.8124 27.06 13.1977 27.06H47.6628C48.0481 27.06 48.3605 27.3734 48.3605 27.76C48.3605 28.1466 48.0481 28.46 47.6628 28.46H13.1977C12.8124 28.46 12.5 28.1466 12.5 27.76Z" clip-rule="evenodd" fill-rule="evenodd"></path>
<path fill="black" d="M43.0581 21.88C42.6728 21.88 42.3605 22.1934 42.3605 22.58C42.3605 22.9666 42.6728 23.28 43.0581 23.28C43.4435 23.28 43.7558 22.9666 43.7558 22.58C43.7558 22.1934 43.4435 21.88 43.0581 21.88ZM40.9651 22.58C40.9651 21.4202 41.9022 20.48 43.0581 20.48C44.2141 20.48 45.1512 21.4202 45.1512 22.58C45.1512 23.7398 44.2141 24.68 43.0581 24.68C41.9022 24.68 40.9651 23.7398 40.9651 22.58Z" clip-rule="evenodd" fill-rule="evenodd"></path>
</svg>
